<svg width="18" height="18" viewBox="0 0 18 18" fill="none" xmlns="http://www.w3.org/2000/svg">
<rect width="18" height="18" fill="#E5E5E5"/>
<g id="Desktop - 1">
<rect width="1440" height="1515" transform="translate(-1289 -110)" fill="#FFDF8C"/>
<g id="Rectangle 1" filter="url(#filter0_d_0_1)">
<rect x="-1232" y="-67" width="1328" height="1409" rx="10" fill="white"/>
</g>
<g id="Group 2">
<rect id="Rectangle 3" x="-92" y="-15" width="150" height="50" rx="25" fill="#FE5F1E"/>
<g id="iconfinder_shopping-cart_2561279 1">
<path id="Vector" d="M6.33333 16.3333C7.06971 16.3333 7.66667 15.7364 7.66667 15C7.66667 14.2636 7.06971 13.6667 6.33333 13.6667C5.59695 13.6667 5 14.2636 5 15C5 15.7364 5.59695 16.3333 6.33333 16.3333Z" stroke="white" stroke-width="1.8" stroke-linecap="round" stroke-linejoin="round"/>
<path id="Vector_2" d="M14.3333 16.3333C15.0697 16.3333 15.6667 15.7364 15.6667 15C15.6667 14.2636 15.0697 13.6667 14.3333 13.6667C13.597 13.6667 13 14.2636 13 15C13 15.7364 13.597 16.3333 14.3333 16.3333Z" stroke="white" stroke-width="1.8" stroke-linecap="round" stroke-linejoin="round"/>
<path id="Vector_3" d="M4.78002 4.99999H16.3334L15.2134 10.5933C15.1524 10.9003 14.9854 11.176 14.7417 11.3722C14.4979 11.5684 14.1929 11.6727 13.88 11.6667H6.83335C6.50781 11.6694 6.1925 11.553 5.94689 11.3393C5.70128 11.1256 5.54233 10.8295 5.50002 10.5067L4.48669 2.82666C4.44466 2.50615 4.28764 2.21182 4.04482 1.99844C3.80201 1.78505 3.48994 1.66715 3.16669 1.66666H1.66669" stroke="white" stroke-width="1.8" stroke-linecap="round" stroke-linejoin="round"/>
</g>
</g>
</g>
<defs>
<filter id="filter0_d_0_1" x="-1252" y="-72" width="1368" height="1449" filterUnits="userSpaceOnUse" color-interpolation-filters="sRGB">
<feFlood flood-opacity="0" result="BackgroundImageFix"/>
<feColorMatrix in="SourceAlpha" type="matrix" values="0 0 0 0 0 0 0 0 0 0 0 0 0 0 0 0 0 0 127 0" result="hardAlpha"/>
<feOffset dy="15"/>
<feGaussianBlur stdDeviation="10"/>
<feColorMatrix type="matrix" values="0 0 0 0 0 0 0 0 0 0 0 0 0 0 0 0 0 0 0.03 0"/>
<feBlend mode="normal" in2="BackgroundImageFix" result="effect1_dropShadow_0_1"/>
<feBlend mode="normal" in="SourceGraphic" in2="effect1_dropShadow_0_1" result="shape"/>
</filter>
</defs>
</svg>
