<svg width="301.530273" height="254.985901" viewBox="0 0 301.53 254.986" fill="none" xmlns="http://www.w3.org/2000/svg" xmlns:xlink="http://www.w3.org/1999/xlink">
    <desc>
        Created with Pixso.
    </desc>
    <defs/>
    <path id="Vector" d="M212.984 20.1328C244.016 27.8116 269.535 61.4504 269.139 94.6172C268.751 127.712 242.445 160.335 220.432 191.73C198.481 223.129 180.948 253.32 158.757 254.92C136.538 256.496 109.696 229.448 87.4854 211.507C65.2048 193.57 47.6062 184.731 32.4473 168.966C17.2883 153.2 4.63159 130.5 7.59497 110.175C10.5586 89.8499 29.1501 71.9127 48.5952 62.1263C68.1062 52.2718 88.4045 50.5721 116.864 40.5816C145.324 30.5912 181.922 12.3981 212.984 20.1328Z" fill="#F8F8F8" fill-opacity="1.000000" fill-rule="nonzero"/>
    <path id="Vector" d="M197.278 173.629L156.709 91.0457C155.471 90.3019 150.502 87.0104 150.502 87.0104" stroke="#DFDFDF" stroke-opacity="1.000000" stroke-width="5.000000" stroke-linejoin="round" stroke-linecap="round"/>
    <path id="Vector" d="M153.799 97.5847C153.314 95.933 151.86 92.5295 151.86 92.5295C150.972 92.4735 144.789 89.194 144.789 89.194" stroke="#DFDFDF" stroke-opacity="1.000000" stroke-width="5.000000" stroke-linejoin="round" stroke-linecap="round"/>
    <path id="Vector" d="M143.02 89.498L162.244 81.4113" stroke="#DFDFDF" stroke-opacity="1.000000" stroke-width="5.000000" stroke-linejoin="round" stroke-linecap="round"/>
    <path id="Vector" d="M4.94165 215.646L0 220.353L11.8618 236.391L15.5312 233.043L9.88354 218.774L4.94165 215.646Z" fill="#000000" fill-opacity="1.000000" fill-rule="nonzero"/>
    <path id="Vector" d="M100.724 201.008L96.6396 208.767L106.779 225.045L111.05 223.909L108.249 202.664L100.724 201.008Z" fill="#000000" fill-opacity="1.000000" fill-rule="nonzero"/>
    <path id="Vector" d="M152.985 86.4024C152.985 88.9668 150.282 91.0457 146.949 91.0457C143.616 91.0457 140.914 88.9668 140.914 86.4024C140.914 83.838 143.616 81.7592 146.949 81.7592C150.282 81.7592 152.985 83.838 152.985 86.4024Z" fill="#D37C59" fill-opacity="1.000000" fill-rule="evenodd"/>
    <path id="Vector" d="M66.4033 91.3057C63.688 95.305 4.01855 216.118 4.01855 216.118L10.7678 220.365L89.51 132.507L66.4033 91.3057Z" fill="#56CAD8" fill-opacity="1.000000" fill-rule="nonzero"/>
    <path id="Vector" d="M117.811 61.9903C119.362 63.3581 123.908 68.6772 125.394 69.6451C126.88 70.6129 143.92 81.5712 147.116 82.5391C150.312 83.5069 143.52 86.3865 143.52 86.3865C143.52 86.3865 121.321 81.3113 119.68 80.1835C118.04 79.0556 108.315 70.9849 108.315 68.8212C108.315 66.6576 117.811 61.9903 117.811 61.9903Z" fill="#D37C59" fill-opacity="1.000000" fill-rule="nonzero"/>
    <path id="Vector" d="M104.805 51.5919C109.758 46.0527 119.432 59.1907 119.223 61.1224C119.013 63.0541 112.171 71.1568 107.834 71.1568C106.535 71.1568 101.325 55.4833 104.805 51.5919Z" fill="#FCC486" fill-opacity="1.000000" fill-rule="nonzero"/>
    <path id="Vector" d="M65.6355 92.5215C64.4719 94.1212 59.4292 106.919 59.4292 111.319C59.4292 141.314 102.803 149.097 109.033 149.097C108.133 153.284 98.5908 200.844 99.0408 201.888C99.4907 202.932 107.408 205.064 109.033 204.788C115.239 201.304 135.274 152.796 133.769 145.897C131.655 136.231 98.4707 107.959 93.6763 105.143C88.8818 102.328 65.6355 92.5215 65.6355 92.5215Z" fill="#74D5DE" fill-opacity="1.000000" fill-rule="nonzero"/>
    <path id="Vector" d="M94.2891 39.1938C127.675 39.1938 101.81 103.896 95.9377 107.403C92.0586 109.715 68.0093 100.924 65.4338 92.1055C64.5532 89.094 75.8408 39.1938 94.2891 39.1938Z" fill="#FED385" fill-opacity="1.000000" fill-rule="nonzero"/>
    <path id="Vector" d="M147.904 88.5901C147.904 91.1545 145.201 93.2334 141.868 93.2334C138.534 93.2334 135.832 91.1545 135.832 88.5901C135.832 86.0257 138.534 83.9468 141.868 83.9468C145.201 83.9468 147.904 86.0257 147.904 88.5901Z" fill="#DE8E68" fill-opacity="1.000000" fill-rule="evenodd"/>
    <path id="Vector" d="M83.6333 69.0692C83.7148 72.3326 84.7737 87.3103 86.0886 87.7622C101.992 93.2334 129.533 90.8218 134.288 90.4938C139.044 90.1659 142.093 86.7144 141.856 85.8945C141.619 85.0747 126.662 78.7876 100.697 78.0478C100.216 75.0242 101.368 65.8857 100.181 65.0698C98.9939 64.2539 83.6333 69.0692 83.6333 69.0692Z" fill="#DE8E68" fill-opacity="1.000000" fill-rule="nonzero"/>
    <path id="Vector" d="M88.0518 41.9654C101.865 39.0539 104.343 65.6417 103.017 67.6014C101.69 69.5611 84.0913 72.3327 81.7949 70.6209C79.4985 68.9092 77.5786 44.1691 88.0518 41.9654Z" fill="#FED892" fill-opacity="1.000000" fill-rule="nonzero"/>
    <path id="Vector" d="M97.4504 22.6605C96.8142 25.1641 92.4736 39.4978 92.7415 40.2577C93.009 41.0176 98.9827 44.3691 101.275 44.0011C101.364 42.9093 102.338 37.0622 104.332 33.5468C106.325 30.0313 97.4504 22.6605 97.4504 22.6605Z" fill="#D37C59" fill-opacity="1.000000" fill-rule="nonzero"/>
    <path id="Vector" d="M107.593 7.99918C112.507 8.51096 115.885 15.1072 115.138 22.7322C114.391 30.3572 109.802 36.1237 104.888 35.6119C99.9739 35.1001 96.5957 28.5039 97.3428 20.8789C98.0898 13.2538 102.679 7.48741 107.593 7.99918Z" fill="#DE8E68" fill-opacity="1.000000" fill-rule="evenodd"/>
    <path id="Vector" d="M96.4844 22.6604C95.468 22.0845 93.5403 18.6931 93.5403 15.5416C93.5403 10.6103 98.3074 7.80278 101.523 6.34301C103.955 5.21918 106.023 0 111.562 0C115.98 0 116.275 4.58728 118.307 4.76325C123.575 5.21518 126.531 5.41915 126.531 9.36653C126.531 12.2661 122.923 20.1648 115.565 20.1648C115.565 18.7011 115.088 15.0656 114.3 13.3179C109.878 13.5459 106.279 19.405 100.146 19.381C98.8311 19.357 96.4844 22.6604 96.4844 22.6604Z" fill="#FD8369" fill-opacity="1.000000" fill-rule="nonzero"/>
    <path id="Vector" d="M101.523 21.6886C101.523 23.5815 100.304 25.1161 98.8 25.1161C97.2964 25.1161 96.0771 23.5815 96.0771 21.6886C96.0771 19.7957 97.2964 18.2611 98.8 18.2611C100.304 18.2611 101.523 19.7957 101.523 21.6886Z" fill="#DE8E68" fill-opacity="1.000000" fill-rule="evenodd"/>
    <path id="Vector" d="M294.845 204.792L168.113 204.792L168.113 176.44C175.044 175.808 273.577 166.21 273.577 166.21L273.577 104.568L153.799 97.5847L168.113 176.448" stroke="#DFDFDF" stroke-opacity="1.000000" stroke-width="5.000000" stroke-linejoin="round" stroke-linecap="round"/>
    <path id="Vector" d="M178.299 220.457C175.051 220.457 172.418 217.743 172.418 214.394C172.418 211.046 175.051 208.331 178.299 208.331C181.546 208.331 184.179 211.046 184.179 214.394C184.179 217.743 181.546 220.457 178.299 220.457Z" stroke="#DFDFDF" stroke-opacity="1.000000" stroke-width="5.000000" stroke-linejoin="round"/>
    <path id="Vector" d="M293.15 220.457C289.902 220.457 287.269 217.743 287.269 214.394C287.269 211.046 289.902 208.331 293.15 208.331C296.397 208.331 299.03 211.046 299.03 214.394C299.03 217.743 296.397 220.457 293.15 220.457Z" stroke="#DFDFDF" stroke-opacity="1.000000" stroke-width="5.000000" stroke-linejoin="round"/>
    <path id="Vector" d="M158.478 123.353L273.577 123.353" stroke="#DFDFDF" stroke-opacity="1.000000" stroke-width="5.000000" stroke-linejoin="round" stroke-linecap="round"/>
    <path id="Vector" d="M161.658 140.878L273.577 140.878" stroke="#DFDFDF" stroke-opacity="1.000000" stroke-width="5.000000" stroke-linejoin="round" stroke-linecap="round"/>
    <path id="Vector" d="M133.288 93.5893L143.02 89.4979" stroke="#DFDFDF" stroke-opacity="1.000000" stroke-width="5.000000" stroke-linejoin="round" stroke-linecap="round"/>
    <path id="Vector" d="M171.398 140.878C170.137 137.202 156.763 97.7487 156.763 97.7487" stroke="#DFDFDF" stroke-opacity="1.000000" stroke-width="5.000000" stroke-linejoin="round" stroke-linecap="round"/>
</svg>
