<svg width="20.000000" height="20.000000" viewBox="0 0 20 20" fill="none" xmlns="http://www.w3.org/2000/svg" xmlns:xlink="http://www.w3.org/1999/xlink">
	<desc>
			Created with Pixso.
	</desc>
	<defs>
		<clipPath id="clip8_426">
			<rect width="20.000000" height="20.000000" fill="white" fill-opacity="0"/>
		</clipPath>
	</defs>
	<rect width="20.000000" height="20.000000" fill="#FFFFFF" fill-opacity="0"/>
	<g clip-path="url(#clip8_426)">
		<path d="M2.5 5L4.16663 5L17.5 5" stroke="#B6B6B6" stroke-opacity="1.000000" stroke-width="1.200000" stroke-linejoin="round" stroke-linecap="round"/>
		<path d="M15.8334 16.6667C15.8334 17.1087 15.6578 17.5326 15.3452 17.8452C15.0327 18.1577 14.6088 18.3333 14.1667 18.3333L5.83337 18.3333C5.39136 18.3333 4.96741 18.1577 4.65491 17.8452C4.34229 17.5326 4.16675 17.1087 4.16675 16.6667L4.16675 4.99998L15.8334 4.99998L15.8334 16.6667ZM6.66675 4.99998L6.66675 3.33333C6.66675 2.8913 6.84229 2.46738 7.15491 2.15482C7.46741 1.84225 7.89136 1.66666 8.33337 1.66666L11.6667 1.66666C12.1088 1.66666 12.5327 1.84225 12.8452 2.15482C13.1578 2.46738 13.3334 2.8913 13.3334 3.33333L13.3334 4.99998" stroke="#B6B6B6" stroke-opacity="1.000000" stroke-width="1.200000" stroke-linejoin="round" stroke-linecap="round"/>
		<path d="M8.33325 9.16666L8.33325 14.1667" stroke="#B6B6B6" stroke-opacity="1.000000" stroke-width="1.200000" stroke-linejoin="round" stroke-linecap="round"/>
		<path d="M11.6667 9.16666L11.6667 14.1667" stroke="#B6B6B6" stroke-opacity="1.000000" stroke-width="1.200000" stroke-linejoin="round" stroke-linecap="round"/>
	</g>
</svg>
