<svg width="32.000000" height="32.000000" viewBox="0 0 32 32" fill="none" xmlns="http://www.w3.org/2000/svg" xmlns:xlink="http://www.w3.org/1999/xlink">
	<desc>
			Created with Pixso.
	</desc>
	<defs/>
	<circle id="Ellipse 1" cx="16.000000" cy="16.000000" r="16.000000" fill="#FFFFFF" fill-opacity="1.000000"/>
	<circle id="Ellipse 1" cx="16.000000" cy="16.000000" r="15.000000" stroke="#FE5F1E" stroke-opacity="1.000000" stroke-width="2.000000"/>
	<path id="Vector" d="M19.8402 15.04L16.9602 15.04L16.9602 12.16C16.9602 11.6299 16.5304 11.2 16.0002 11.2C15.4701 11.2 15.0402 11.6299 15.0402 12.16L15.0402 15.04L12.1602 15.04C11.63 15.04 11.2002 15.4698 11.2002 16C11.2002 16.5302 11.63 16.96 12.1602 16.96L15.0402 16.96L15.0402 19.84C15.0402 20.3702 15.4701 20.8 16.0002 20.8C16.5304 20.8 16.9602 20.3702 16.9602 19.84L16.9602 16.96L19.8402 16.96C20.3704 16.96 20.8002 16.5302 20.8002 16C20.8002 15.4698 20.3704 15.04 19.8402 15.04Z" fill="#EB5A1E" fill-opacity="1.000000" fill-rule="nonzero"/>
</svg>
