<svg width="12.000000" height="12.000000" viewBox="0 0 12 12" fill="none" xmlns="http://www.w3.org/2000/svg" xmlns:xlink="http://www.w3.org/1999/xlink">
	<desc>
			Created with Pixso.
	</desc>
	<defs/>
	<path d="M10.8 4.79999L7.2 4.79999L7.2 1.20001C7.2 0.537292 6.6627 0 6 0C5.3373 0 4.8 0.537292 4.8 1.20001L4.8 4.79999L1.2 4.79999C0.5373 4.79999 0 5.33731 0 6C0 6.66269 0.5373 7.20001 1.2 7.20001L4.8 7.20001L4.8 10.8C4.8 11.4627 5.3373 12 6 12C6.6627 12 7.2 11.4627 7.2 10.8L7.2 7.20001L10.8 7.20001C11.4627 7.20001 12 6.66269 12 6C12 5.33731 11.4627 4.79999 10.8 4.79999Z" fill="#FFFFFF" fill-opacity="1.000000" fill-rule="nonzero"/>
</svg>
