<svg width="29.383301" height="29.383316" viewBox="0 0 29.3833 29.3833" fill="none" xmlns="http://www.w3.org/2000/svg" xmlns:xlink="http://www.w3.org/1999/xlink">
	<desc>
			Created with Pixso.
	</desc>
	<defs/>
	<rect id="iconfinder_shopping-cart_2561279 1" width="29.000000" height="29.000000" transform="translate(0.191772 0.191650)" fill="#FFFFFF" fill-opacity="0"/>
	<path id="Vector" d="M9.8584 27.9833C8.5238 27.9833 7.44177 26.9013 7.44177 25.5667C7.44177 24.232 8.5238 23.15 9.8584 23.15C11.1931 23.15 12.2751 24.232 12.2751 25.5667C12.2751 26.9013 11.1931 27.9833 9.8584 27.9833Z" stroke="#3F3F3F" stroke-opacity="1.000000" stroke-width="2.800000" stroke-linejoin="round"/>
	<path id="Vector" d="M24.3584 27.9833C23.0238 27.9833 21.9418 26.9013 21.9418 25.5667C21.9418 24.232 23.0238 23.15 24.3584 23.15C25.6931 23.15 26.7751 24.232 26.7751 25.5667C26.7751 26.9013 25.6931 27.9833 24.3584 27.9833Z" stroke="#3F3F3F" stroke-opacity="1.000000" stroke-width="2.800000" stroke-linejoin="round"/>
	<path id="Vector" d="M7.04297 7.44167L27.9834 7.44167L25.9534 17.5796C25.8429 18.1359 25.5402 18.6356 25.0984 18.9913C24.6566 19.3469 24.1038 19.5359 23.5367 19.525L10.7646 19.525C10.1746 19.53 9.60303 19.319 9.15784 18.9317C8.71277 18.5443 8.42468 18.0076 8.3479 17.4225L6.51123 3.50249C6.43506 2.92157 6.15051 2.38811 5.71045 2.00134C5.27026 1.61458 4.70471 1.40088 4.11877 1.39999L1.40002 1.39999" stroke="#3F3F3F" stroke-opacity="1.000000" stroke-width="2.800000" stroke-linejoin="round" stroke-linecap="round"/>
</svg>
