<?xml version="1.0" standalone="no"?>
<!DOCTYPE svg PUBLIC "-//W3C//DTD SVG 20010904//EN"
 "http://www.w3.org/TR/2001/REC-SVG-20010904/DTD/svg10.dtd">
<svg version="1.0" xmlns="http://www.w3.org/2000/svg"
 width="890.000000pt" height="512.000000pt" viewBox="0 0 890.000000 512.000000"
 preserveAspectRatio="xMidYMid meet">

<g transform="translate(0.000000,512.000000) scale(0.100000,-0.100000)"
fill="#000000" stroke="none">
<path d="M3125 3700 c-88 -89 -99 -103 -99 -135 0 -34 29 -65 574 -610 l575
-575 -567 -567 c-312 -313 -572 -581 -577 -596 -16 -43 6 -81 101 -175 67 -66
92 -84 122 -89 l38 -6 694 694 c479 479 695 702 699 720 4 16 0 39 -9 56 -8
15 -320 333 -693 706 -804 802 -702 733 -858 577z"/>
<path d="M4225 3708 c-98 -97 -115 -129 -96 -176 6 -15 266 -281 577 -592
l565 -564 -576 -576 c-536 -537 -575 -578 -575 -610 0 -30 12 -46 104 -138
103 -103 105 -105 143 -99 34 6 107 75 725 694 681 681 688 689 688 728 0 40
-7 47 -693 733 -816 816 -715 746 -862 600z"/>
</g>
</svg>
