<svg width="32.000000" height="32.000000" viewBox="0 0 32 32" fill="none" xmlns="http://www.w3.org/2000/svg" xmlns:xlink="http://www.w3.org/1999/xlink">
	<desc>
			Created with Pixso.
	</desc>
	<defs/>
	<circle id="Ellipse 1" cx="16.000000" cy="16.000000" r="16.000000" fill="#FFFFFF" fill-opacity="1.000000"/>
	<circle id="Ellipse 1" cx="16.000000" cy="16.000000" r="15.000000" stroke="#D7D7D7" stroke-opacity="1.000000" stroke-width="2.000000"/>
	<path id="Vector" d="M19.7478 17.9557L17.4993 15.7071L19.7478 13.4585C20.1619 13.0446 20.1619 12.3734 19.7478 11.9595C19.334 11.5455 18.6628 11.5455 18.2488 11.9595L16.0002 14.2081L13.7516 11.9595C13.3378 11.5455 12.6665 11.5455 12.2526 11.9595C11.8386 12.3734 11.8386 13.0446 12.2526 13.4585L14.5012 15.7071L12.2526 17.9557C11.8386 18.3697 11.8386 19.0409 12.2526 19.4548C12.6665 19.8687 13.3378 19.8687 13.7516 19.4548L16.0002 17.2062L18.2488 19.4548C18.6628 19.8687 19.334 19.8687 19.7478 19.4548C20.1619 19.0409 20.1619 18.3697 19.7478 17.9557Z" fill="#D0D0D0" fill-opacity="1.000000" fill-rule="nonzero"/>
</svg>
